<mxfile host="app.diagrams.net" modified="2022-07-30T08:33:33.367Z" agent="5.0 (X11)" etag="H1jTOw76gOoaooctXRG8" version="20.2.2" type="github">
  <diagram name="Page-1" id="2c0d36ab-eaac-3732-788b-9136903baeff">
    <mxGraphModel dx="1662" dy="812" grid="1" gridSize="10" guides="1" tooltips="1" connect="1" arrows="1" fold="1" page="1" pageScale="1.5" pageWidth="1169" pageHeight="827" background="none" math="0" shadow="0">
      <root>
        <mxCell id="0" />
        <mxCell id="1" parent="0" />
        <mxCell id="123" value="" style="fillColor=#AE4132;strokeColor=none;opacity=30;" parent="1" vertex="1">
          <mxGeometry x="550" y="160.00000000000003" width="210" height="99.99999999999994" as="geometry" />
        </mxCell>
        <mxCell id="122" value="" style="fillColor=#10739E;strokeColor=none;opacity=30;" parent="1" vertex="1">
          <mxGeometry x="97" y="325.5" width="1133" height="100" as="geometry" />
        </mxCell>
        <mxCell id="2" value="Telegram" style="rounded=1;fillColor=#23445D;gradientColor=none;strokeColor=none;fontColor=#FFFFFF;fontStyle=1;fontFamily=Tahoma;fontSize=14" parent="1" vertex="1">
          <mxGeometry x="562" y="170" width="190" height="80" as="geometry" />
        </mxCell>
        <UserObject label="collection 3" link="https://www.inoreader.com/stream/user/1005326388/tag/Militants/view/html?t=Telegram%203&amp;cs=m&amp;n=30&amp;sb=y" linkTarget="_blank" id="4">
          <mxCell style="rounded=1;fillColor=#23445D;gradientColor=none;strokeColor=none;fontColor=#FFFFFF;fontStyle=1;fontFamily=Tahoma;fontSize=14" parent="1" vertex="1">
            <mxGeometry x="1016.9999999999998" y="335.5" width="190" height="80" as="geometry" />
          </mxCell>
        </UserObject>
        <mxCell id="9" value="" style="edgeStyle=elbowEdgeStyle;elbow=vertical;strokeWidth=2;rounded=0" parent="1" source="2" target="4" edge="1">
          <mxGeometry x="337" y="215.5" width="100" height="100" as="geometry">
            <mxPoint x="337" y="315.5" as="sourcePoint" />
            <mxPoint x="437" y="215.5" as="targetPoint" />
          </mxGeometry>
        </mxCell>
        <UserObject label="collection 2" link="https://www.inoreader.com/stream/user/1004571328/tag/RussianTelegram/view/html?t=Telegram%202&amp;cs=m&amp;n=30&amp;sb=y" linkTarget="_blank" id="12">
          <mxCell style="rounded=1;fillColor=#23445D;gradientColor=none;strokeColor=none;fontColor=#FFFFFF;fontStyle=1;fontFamily=Tahoma;fontSize=14" parent="1" vertex="1">
            <mxGeometry x="561.9999999999999" y="335.5" width="190" height="80" as="geometry" />
          </mxCell>
        </UserObject>
        <UserObject label="collection 1" link="https://www.inoreader.com/stream/user/1005324229/tag/Telegram/view/html?t=Telegram%201&amp;cs=m&amp;n=50&amp;sb=y" linkTarget="_blank" id="13">
          <mxCell style="rounded=1;fillColor=#23445D;gradientColor=none;strokeColor=none;fontColor=#FFFFFF;fontStyle=1;fontFamily=Tahoma;fontSize=14" parent="1" vertex="1">
            <mxGeometry x="107" y="335.5" width="190" height="80" as="geometry" />
          </mxCell>
        </UserObject>
        <mxCell id="59" value="" style="edgeStyle=elbowEdgeStyle;elbow=vertical;strokeWidth=2;rounded=0" parent="1" source="2" target="12" edge="1">
          <mxGeometry x="347" y="225.5" width="100" height="100" as="geometry">
            <mxPoint x="861.9999999999999" y="275.5" as="sourcePoint" />
            <mxPoint x="1466.9999999999998" y="345.5" as="targetPoint" />
          </mxGeometry>
        </mxCell>
        <mxCell id="61" value="" style="edgeStyle=elbowEdgeStyle;elbow=vertical;strokeWidth=2;rounded=0" parent="1" source="2" target="13" edge="1">
          <mxGeometry x="-23" y="135.5" width="100" height="100" as="geometry">
            <mxPoint x="-23" y="235.5" as="sourcePoint" />
            <mxPoint x="77" y="135.5" as="targetPoint" />
          </mxGeometry>
        </mxCell>
        <mxCell id="101" value="" style="edgeStyle=elbowEdgeStyle;elbow=vertical;strokeWidth=2;rounded=0" parent="1" source="12" edge="1">
          <mxGeometry x="-23" y="135.5" width="100" height="100" as="geometry">
            <mxPoint x="-23" y="235.5" as="sourcePoint" />
            <mxPoint x="657" y="490" as="targetPoint" />
          </mxGeometry>
        </mxCell>
        <UserObject label="Sources" linkTarget="_blank" link="https://www.inoreader.com/reader/subscriptions/export/user/1005324229/label/Telegram" id="UHI6DK3QA_kU7PkQrO_u-133">
          <mxCell style="fontColor=#0000EE;fontStyle=4;rounded=1;overflow=hidden;spacing=10;" vertex="1" parent="1">
            <mxGeometry x="160.5" y="250" width="90" height="40" as="geometry" />
          </mxCell>
        </UserObject>
        <UserObject label="Sources" linkTarget="_blank" link="https://www.inoreader.com/reader/subscriptions/export/user/1005326388/label/Militants" id="UHI6DK3QA_kU7PkQrO_u-134">
          <mxCell style="fontColor=#0000EE;fontStyle=4;rounded=1;overflow=hidden;spacing=10;" vertex="1" parent="1">
            <mxGeometry x="1058.5" y="250" width="90" height="40" as="geometry" />
          </mxCell>
        </UserObject>
        <UserObject label="Sources" linkTarget="_blank" link="https://www.inoreader.com/reader/subscriptions/export/user/1004571328/label/RussianTelegram" id="UHI6DK3QA_kU7PkQrO_u-135">
          <mxCell style="fontColor=#0000EE;fontStyle=4;rounded=1;overflow=hidden;spacing=10;" vertex="1" parent="1">
            <mxGeometry x="608.5" y="270" width="90" height="40" as="geometry" />
          </mxCell>
        </UserObject>
        <mxCell id="UHI6DK3QA_kU7PkQrO_u-136" value="" style="edgeStyle=elbowEdgeStyle;elbow=vertical;strokeWidth=2;rounded=0" edge="1" parent="1">
          <mxGeometry x="-478.5" y="145.5" width="100" height="100" as="geometry">
            <mxPoint x="201.5" y="425.5" as="sourcePoint" />
            <mxPoint x="202" y="490" as="targetPoint" />
          </mxGeometry>
        </mxCell>
        <mxCell id="UHI6DK3QA_kU7PkQrO_u-137" value="" style="edgeStyle=elbowEdgeStyle;elbow=vertical;strokeWidth=2;rounded=0" edge="1" parent="1">
          <mxGeometry x="431.5" y="145.5" width="100" height="100" as="geometry">
            <mxPoint x="1111.5" y="425.5" as="sourcePoint" />
            <mxPoint x="1112" y="490" as="targetPoint" />
          </mxGeometry>
        </mxCell>
      </root>
    </mxGraphModel>
  </diagram>
</mxfile>
